<?xml version="1.0" encoding="UTF-8" standalone="no"?>
<svg
   xmlns:dc="http://purl.org/dc/elements/1.1/"
   xmlns:cc="http://creativecommons.org/ns#"
   xmlns:rdf="http://www.w3.org/1999/02/22-rdf-syntax-ns#"
   xmlns:svg="http://www.w3.org/2000/svg"
   xmlns="http://www.w3.org/2000/svg"
   xmlns:sodipodi="http://sodipodi.sourceforge.net/DTD/sodipodi-0.dtd"
   xmlns:inkscape="http://www.inkscape.org/namespaces/inkscape"
   version="1.1"
   width="86"
   height="35"
   id="svg15"
   sodipodi:docname="HBO-plantilla.svg"
   inkscape:version="0.92.1 r15371">
  <metadata
     id="metadata21">
    <rdf:RDF>
      <cc:Work
         rdf:about="">
        <dc:format>image/svg+xml</dc:format>
        <dc:type
           rdf:resource="http://purl.org/dc/dcmitype/StillImage" />
        <dc:title></dc:title>
      </cc:Work>
    </rdf:RDF>
  </metadata>
  <defs
     id="defs19" />
  <sodipodi:namedview
     pagecolor="#ffffff"
     bordercolor="#666666"
     borderopacity="1"
     objecttolerance="10"
     gridtolerance="10"
     guidetolerance="10"
     inkscape:pageopacity="0"
     inkscape:pageshadow="2"
     inkscape:window-width="1596"
     inkscape:window-height="933"
     id="namedview17"
     showgrid="false"
     units="in"
     showguides="true"
     inkscape:guide-bbox="true"
     inkscape:zoom="3.4052133"
     inkscape:cx="88.837161"
     inkscape:cy="-34.381631"
     inkscape:window-x="-9"
     inkscape:window-y="-9"
     inkscape:window-maximized="1"
     inkscape:current-layer="svg15" />
  <path
     d="m 41.588485,0.29416799 c 2.625969,0 10.099881,1.38591441 10.099881,8.49116601 0,5.719337 -2.827968,7.41757 -5.049941,7.807969 -1.61598,0.292798 4.645948,0 4.645948,7.163811 0,10.15036 -9.089895,9.759961 -9.089895,9.759961 H 27.044658 V 0.29416799 Z M 35.528557,8.3949355 v 5.0166195 h 5.04994 c 0,0 2.019976,-0.234239 2.019976,-2.635189 0,-2.4009509 -2.019976,-2.3814305 -2.019976,-2.3814305 z m 0,12.2389905 v 5.07518 h 5.04994 c 0,0 2.019976,-0.1952 2.019976,-2.73279 0,-2.34239 -2.019976,-2.34239 -2.019976,-2.34239 z M -0.02302129,0.29416799 V 33.517075 H 9.4708663 V 21.219524 h 6.0599277 v 12.297551 h 9.493888 V 0.29416799 H 15.530794 V 12.825958 H 9.4708663 V 0.29416799 Z"
     id="path3"
     style="fill-rule:nonzero;fill:#FFFFFF; stroke-width:0.19856931"
     inkscape:connector-curvature="0" />
  <ellipse
     cx="67.646179"
     cy="16.925142"
     style="fill:none;stroke:#FFFFFF;stroke-width:8.73705006"
     id="circle11"
     rx="13.129844"
     ry="12.687949" />
  <ellipse
     cx="67.646179"
     cy="16.925142"
     id="circle13"
     rx="7.0699172"
     ry="6.8319726"
     style="fill:#FFFFFF;stroke-width:0.19856931" />
</svg>
